<?xml version="1.0" encoding="UTF-8" standalone="no"?>
<!-- Created with Inkscape (http://www.inkscape.org/) -->

<svg
   version="1.1"
   id="svg28598"
   width="162"
   height="337"
   viewBox="0 0 162 337"
   sodipodi:docname="Otyłość III stopnia.svg"
   inkscape:version="1.2 (56b05e47e7, 2022-06-09, custom)"
   xmlns:inkscape="http://www.inkscape.org/namespaces/inkscape"
   xmlns:sodipodi="http://sodipodi.sourceforge.net/DTD/sodipodi-0.dtd"
   xmlns="http://www.w3.org/2000/svg"
   xmlns:svg="http://www.w3.org/2000/svg">
  <defs
     id="defs28602" />
  <sodipodi:namedview
     id="namedview28600"
     pagecolor="#505050"
     bordercolor="#eeeeee"
     borderopacity="1"
     inkscape:showpageshadow="0"
     inkscape:pageopacity="0"
     inkscape:pagecheckerboard="0"
     inkscape:deskcolor="#505050"
     showgrid="false"
     inkscape:zoom="2.4566474"
     inkscape:cx="93.42"
     inkscape:cy="126.39176"
     inkscape:window-width="1848"
     inkscape:window-height="1016"
     inkscape:window-x="72"
     inkscape:window-y="27"
     inkscape:window-maximized="1"
     inkscape:current-layer="g28604" />
  <g
     inkscape:groupmode="layer"
     inkscape:label="Image"
     id="g28604">
    <path
       style="fill:#b00000;fill-opacity:1;stroke:#000000;stroke-opacity:1"
       d="m 17.336916,187.48621 c 0,0 -10.1200948,-17.43236 -4,-18 3.628221,-0.33652 8.312044,11.95447 9,8 2.252972,-12.95042 -4.672198,-12.48955 -4.5417,-19 0.136576,-6.81366 5.546239,-19.67842 5.546239,-19.67842 l 2.5139,-19 6.49,-13 h 1 c -2.5585,11.059 -6.726,21.59 -7.8302,33 -2.0385,21.065 1.4934,42.717 6.9814,63 3.2127,11.873 10.5473,22.231 13.3457,34 3.4133,14.355 -0.4989,29.266 3.3874,44 2.5086,9.511 9.6647,21.244 9.6967,31 0.0176,5.36 -6.9034,13.877 -4.4483,18.721 2.4058,4.747 16.294195,5.72 20.548595,3.537 3.1414,-1.612 1.7748,-5.574 1.203,-8.258 -1.7303,-8.121 -2.5068,-16.708 -1.7145,-25 0.9859,-10.318 3.5613,-20.622 3.8155,-31 0.4029,-16.443 -2.1636,-32.601 -1.726,-49 0.3035,-11.373 2.7407,-22.572 2.7407,-34 h 1 c 0,11.736 2.6605,23.316 2.6605,35 0,26.866 -1.1385,52.031 2.054,79 0.978805,8.269 0.1289,16.891 -1.5988,25 -0.5718,2.684 -1.9384,6.646 1.203,8.258 4.254405,2.183 18.14231,1.21 20.54831,-3.537 2.455,-4.844 -4.466,-13.361 -4.448,-18.721 0.032,-9.776 7.184,-21.474 9.697,-31 3.801,-14.413 -0.16,-29.048 3.12,-43 3.237,-13.769 11.235,-26.119 14.88,-40 8.5,-32.371 5.186,-59.149 -2.116,-91 h 1 l 6.698,14 2.051,18 7.793,20 c 0,0 -7.81729,13.37188 -4.542,19 3.82704,6.57624 5.10181,-8.95665 9,-8 8.86276,2.17499 -12.55739,21.51442 -0.41741,17.2654 12.13998,-4.24901 14.69526,-46.37382 10.88826,-63.26382 -5.058,-22.434 -7.73685,-44.830481 -27.47085,-60.622681 -9.893,-7.9168 -26.735,-7.2309 -34.552005,-17.4723 -3.6013,-4.7189 -0.17,-10.0907 1.473,-14.9066 4.007005,-11.7391 4.466005,-26.9673202 -10.921,-29.6713002 -3.859505,-0.67825 -8.094705,-0.42929 -12.000005,-0.31326 -2.8405,0.08438 -5.4359,0.52796 -7.996095,1.82407 -21.3436,10.8051902 4.640295,30.7375902 -4.5911,43.0670902 -8.581,11.461 -27.8745,10.6338 -38.3981,21.1088 C 2.4972653,88.584994 2.0367453,124.98779 1.3306953,153.80779 c -0.31948,13.041 2.6834121,33.86346 16.0062207,33.67842 m 17.008439,-81.67842 -1,1 z"
       id="path29088"
       sodipodi:nodetypes="cssaccccccscscccscsccsssccccsccccccsszccccssccsscccc" />
  </g>
</svg>
