<?xml version="1.0" encoding="UTF-8" standalone="no"?>
<!-- Created with Inkscape (http://www.inkscape.org/) -->

<svg
   version="1.1"
   id="svg21002"
   width="115"
   height="336"
   viewBox="0 0 115 336"
   sodipodi:docname="Prawidłowa masa ciała.svg"
   inkscape:version="1.2 (56b05e47e7, 2022-06-09, custom)"
   xmlns:inkscape="http://www.inkscape.org/namespaces/inkscape"
   xmlns:sodipodi="http://sodipodi.sourceforge.net/DTD/sodipodi-0.dtd"
   xmlns="http://www.w3.org/2000/svg"
   xmlns:svg="http://www.w3.org/2000/svg">
  <defs
     id="defs21006" />
  <sodipodi:namedview
     id="namedview21004"
     pagecolor="#505050"
     bordercolor="#eeeeee"
     borderopacity="1"
     inkscape:showpageshadow="0"
     inkscape:pageopacity="0"
     inkscape:pagecheckerboard="0"
     inkscape:deskcolor="#505050"
     showgrid="false"
     inkscape:zoom="2.4781341"
     inkscape:cx="-70.012353"
     inkscape:cy="118.83941"
     inkscape:window-width="1848"
     inkscape:window-height="1016"
     inkscape:window-x="72"
     inkscape:window-y="27"
     inkscape:window-maximized="1"
     inkscape:current-layer="g21008" />
  <g
     inkscape:groupmode="layer"
     inkscape:label="Image"
     id="g21008">
    <path
       style="fill:#26be00;fill-opacity:1;stroke:#000000;stroke-opacity:1"
       d="m 15.999723,194.17028 c 4.66443,1.03795 -8.5341198,-12.26655 -5.53382,-17.18369 0.26821,-0.43956 1.25133,-0.23004 1.25133,-0.23004 2.7975,-0.62944 3.70547,9.80852 5.28249,7.41368 3.09228,-4.69588 -5.7824,-22 -5.7824,-22 l 12.7824,-67.000004 h 1 c 2.2425,13.032004 5.0009,24.451004 3.9066,38.000004 -1.0252,12.695 -5.2971,24.979 -5.8672,38 -1.0374,23.691 5.3261,44.013 7.787,67 1.715102,16.02 -1.4369,30.804 2.286302,47 2.5992,11.307 4.1223,22.67 0.9992,34 -1.0238,3.714 -5.624302,9.931 -1.7786,13.143 2.9021,2.424 15.0542,5.142 16.973,0.423 1.1703,-2.878 -0.8916,-7.632 -1.3858,-10.566 -1.141,-6.773 -1.5193,-14.163 -0.6311,-21 1.6049,-12.356 5.2677,-24.469 5.6674,-37 0.2565,-8.043 -3.0115,-16.021 -2.581,-24 1.1681,-21.653 3.6242,-43.176 3.6242,-65 h 5 l 3.8958,65 -1.8063,32 5.7315,37 c 0,0 -5.943249,24.44505 -0.9936,25.05978 7.752632,0.96285 13.4882,1.69622 16.0399,-3.33878 2.1638,-4.269 -3.7762,-14.031 -4.5425,-18.721 -1.6811,-10.289 1.7672,-22.006 4.0247,-32 3.2465,-14.372 -0.6128,-26.946 0.8249,-41 1.9327,-18.892 9.6084,-36.508 8.7862,-56 -0.7325,-17.367 -5.4964,-34.026 -6.8672,-51 -1.0648,-13.184 2.0276,-24.276 3.9066,-37.000004 h 1 l 8.46,47.000004 4.697005,21 c 0,0 -7.238259,14.89471 -6.00518,21.08684 0.644464,3.23628 6.12037,-11.68187 6.80865,-7.46989 0.96911,5.93059 -8.601591,18.52111 -5.80865,17.46989 16.49463,-6.2083 15.00018,-30.47084 15.93818,-44.08684 0.4,-5.815 1.327,-11.159 0.295,-17 -2.854,-16.149 -4.955,-32.752 -7.225,-49.000005 -1.044,-7.473 0.24,-16.5613 -4.67,-22.9452 -7.556805,-9.8242 -26.322205,-3.7021 -32.310205,-15.098 -6.0097,-11.4372 18.7457,-38.1972 -5.1806,-44.5270199 -2.7707,-0.73303002 -6.141,-0.71750002 -8.9992,-0.71603002 -2.7848,0.00143 -5.5215,0.50613002 -7.9853,1.85491002 -9.7265,5.3246399 -9.4887,18.2147399 -6.0633,27.4313399 1.9491,5.2445 6.1406,10.3145 2.9444,15.9815 -6.6518,11.7941 -25.934202,4.509 -32.807102,16.037 -4.1252998,6.9195 -2.4788998,15.4334 -4.1033998,22.9815 -5.55109,25.794005 -6.17549996,50.764005 -5.98992996,77.000005 0.0822,11.628 3.50484996,29.44102 15.00462976,32 z"
       id="path21012"
       sodipodi:nodetypes="sssscccccccscsccsccccccscsccccccccsssccccscsccccccss" />
  </g>
</svg>
