<?xml version="1.0" encoding="UTF-8" standalone="no"?>
<!-- Created with Inkscape (http://www.inkscape.org/) -->

<svg
   version="1.1"
   id="svg24435"
   width="112"
   height="336"
   viewBox="0 0 112 336"
   sodipodi:docname="Wygłodzenie.svg"
   inkscape:version="1.2 (56b05e47e7, 2022-06-09, custom)"
   xmlns:inkscape="http://www.inkscape.org/namespaces/inkscape"
   xmlns:sodipodi="http://sodipodi.sourceforge.net/DTD/sodipodi-0.dtd"
   xmlns="http://www.w3.org/2000/svg"
   xmlns:svg="http://www.w3.org/2000/svg">
  <defs
     id="defs24439" />
  <sodipodi:namedview
     id="namedview24437"
     pagecolor="#505050"
     bordercolor="#eeeeee"
     borderopacity="1"
     inkscape:showpageshadow="0"
     inkscape:pageopacity="0"
     inkscape:pagecheckerboard="0"
     inkscape:deskcolor="#505050"
     showgrid="false"
     inkscape:zoom="3.5046109"
     inkscape:cx="-68.623881"
     inkscape:cy="112.56599"
     inkscape:window-width="1848"
     inkscape:window-height="1016"
     inkscape:window-x="72"
     inkscape:window-y="27"
     inkscape:window-maximized="1"
     inkscape:current-layer="g24441" />
  <g
     inkscape:groupmode="layer"
     inkscape:label="Image"
     id="g24441">
    <path
       style="fill:#00ffd9;fill-opacity:1;stroke:#000000;stroke-opacity:1"
       d="m 16.870074,192.61004 c 4.19192,2.14493 -9.5375962,-13.21859 -4.999996,-17 2.030334,-1.69198 2.249543,6.47557 4.999996,8 0.291548,0.16159 0.960453,0.33098 1,0 1.051723,-8.8021 -6.337486,-24.80021 -6.337486,-24.80021 l 7.04755,-38.71466 10.665474,-38.135896 1.296238,2.370637 c 1.2569,15.793989 9.230447,30.692249 7.915337,46.976249 -0.588,7.281 -5.027799,19.27992 -6.447799,26.42492 -2.0007,10.066 -0.91345,18.85051 -0.46515,29.08751 0.7516,17.164 3.060914,32.87924 4.238214,49.99124 1.03141,14.992 -0.927092,28.17479 1.901218,43.29579 2.2577,12.07 4.069113,25.6082 0.03051,37.5762 -1.2479,3.698 -7.850695,10.99701 -3.970185,14.27101 2.8596,2.412 14.9284,5.157 16.830996,0.539 1.4447,-3.506 -1.169996,-9.107 -1.728396,-12.682 -1.0492,-6.718 -0.9235,-14.239 -0.2692,-21 1.0321,-10.665 0.223498,-21.29302 0.351298,-32.03802 0.1121,-9.423 1.124302,-18.62298 1.518298,-27.96198 0.8997,-21.33 1.702071,-58.90504 3.9606,-64 4.803606,-10.83634 8.139375,26.30426 9.080675,34.17426 2.3096,19.311 0.644077,38.15324 1.113377,57.30624 0.3193,13.035 -0.708052,26.5455 0.505748,39.5195 0.5211,5.569 -5.7809,24.404 -1.868,27.972 3.2565,2.97 16.2946,0.428 17.3403,-4.105 1.2095,-5.245 -6.870038,-13.79246 -7.534838,-19.50146 -1.3183,-11.321 1.226692,-24.4353 2.945292,-35.5673 2.0227,-13.102 0.151567,-26.115 1.708167,-38.957 2.6946,-22.231 5.005446,-48.28419 4.016446,-70.86819 -0.5613,-12.82 -6.738146,-19.7051 -7.898146,-31.9691 -1.5551,-16.441 4.717075,-32.64788 7.989675,-48.503874 l 0.05282,-0.372028 19.893253,74.465372 c 0,0 -8.283912,19.06127 -6.344773,25.40658 0.09742,0.31878 0.71645,0.17524 1,0 2.536151,-1.56743 1.463849,-6.43257 4.000003,-8 0.28355,-0.17524 0.8003,-0.26689 1,0 3.53868,4.72934 -10.500201,19.1533 -5.000003,17 10.610463,-4.15395 11.046953,-21.08726 11.332953,-32.95126 0.654,-27.151 -5.04705,-50.26169 -12.283056,-76.672679 -1.644005,-6.0004 -0.72478,-17.127667 -3.783776,-22.585467 -6.827,-12.1813 -20.184321,-2.649495 -26.101521,-14.830695 -2.5481,-5.2455 3.5153,-10.2147 5.3717,-14.9599 4.8198,-12.3205 4.1971,-29.7647694 -12.5363,-29.99614939 -2.9243,-0.04044 -6.1393,-0.3006 -8.999196,0.41512999 -13.8324,3.4617 -10.7221,21.8265194 -6.652,31.5810194 1.7523,4.1998 7.190498,8.09335 4.949198,12.80095 -5.3566,11.2508 -15.666901,2.615481 -23.414301,11.085781 -4.9587,5.4214 -6.435719,16.239806 -8.164719,22.844906 -4.7284,18.064 -8.8606992,36.553304 -9.3206192,55.326304 -0.32269,13.172 -1.2725834,29.11625 -0.1569734,43.0861 0.49467,6.19442 2.2272344,10.56586 10.2210906,14.65617 z"
       id="path24445"
       sodipodi:nodetypes="ssasccccsccscscccsscscccccssccscccsaaascccccscccscssss" />
  </g>
</svg>
