<?xml version="1.0" encoding="UTF-8" standalone="no"?>
<!-- Created with Inkscape (http://www.inkscape.org/) -->

<svg
   version="1.1"
   id="svg36324"
   width="126"
   height="337"
   viewBox="0 0 126 337"
   sodipodi:docname="Nadwaga.svg"
   inkscape:version="1.2 (56b05e47e7, 2022-06-09, custom)"
   xmlns:inkscape="http://www.inkscape.org/namespaces/inkscape"
   xmlns:sodipodi="http://sodipodi.sourceforge.net/DTD/sodipodi-0.dtd"
   xmlns="http://www.w3.org/2000/svg"
   xmlns:svg="http://www.w3.org/2000/svg">
  <defs
     id="defs36328" />
  <sodipodi:namedview
     id="namedview36326"
     pagecolor="#505050"
     bordercolor="#eeeeee"
     borderopacity="1"
     inkscape:showpageshadow="0"
     inkscape:pageopacity="0"
     inkscape:pagecheckerboard="0"
     inkscape:deskcolor="#505050"
     showgrid="false"
     inkscape:zoom="2.4637681"
     inkscape:cx="162.96176"
     inkscape:cy="159.30882"
     inkscape:window-width="1848"
     inkscape:window-height="1016"
     inkscape:window-x="72"
     inkscape:window-y="27"
     inkscape:window-maximized="1"
     inkscape:current-layer="g36330" />
  <g
     inkscape:groupmode="layer"
     inkscape:label="Image"
     id="g36330">
    <path
       style="fill:#ffea00;stroke:#000000;stroke-opacity:1;fill-opacity:1"
       d="m 18.405734,193.34938 c 7.053,0.37568 -12.1525602,-12.93901 -4.393298,-16.13342 3.175331,-1.30725 3.55598,10.12308 6.343126,8.11723 5.79799,-4.1727 -4.981826,-14.94823 -6.262926,-21.69323 -1.1286,-5.942 2.6706,-12.73 3.9051,-18.424 3.053,-14.08 0.0513,-31.665 11.0147,-43 0,26.196 -6.7154,51.643 -4.9105,78 1.3664,19.953 9.7359,38.448 11.7361,58 1.5379,15.033 -1.703,28.612 1.3742,44 2.6179,13.091 5.2405,24.986 1.213,38 -1.1876,3.838 -5.0536,9.864 -0.2608,12.567 3.2598,1.839 15.2021,4.758 17.2053,0.115 1.3185,-3.056 -0.7881,-7.564 -1.1983,-10.682 -1.0877,-8.268 -1.19,-15.737 -0.0286,-24 1.5516,-11.039 4.3582,-21.809 4.8302,-33 0.684,-16.216 -1.6416,-32.574 -0.9212,-49 0.589,-13.432 3.9606,-26.449 3.9606,-40 h 1 l 5.946,64 -1.8565,30 6.199653,38.95211 c 0,0 -6.034846,25.53822 -3.289153,26.04789 6.669336,1.23799 16.9752,1.076 19.8642,-4.419 2.0689,-3.935 -3.815,-13.238 -4.5386,-17.581 -1.7353,-10.416 1.1317,-21.92 3.544,-32 3.6138,-15.1 -0.1965,-29.033 1.3009,-44 1.9906,-19.896 10.351504,-38.72 11.739504,-59 1.777,-25.945 -5.441004,-51.264 -4.910004,-77 h 1 l 7.621004,21 1.828,21 4.23,19 c 0,0 -8.9785,15.00789 -6.679,21 1.10106,2.86917 4.60448,-7.92508 7,-6 5.89308,4.73579 -11.21634,15.45101 -5.54842,14.88609 17.03395,-1.69777 14.57542,-17.50309 16.12442,-28.88609 3.418,-25.103 0.14,-51.825 -6.986,-75.999999 -2.132,-7.234205 -1.972,-15.636905 -6.393,-21.999205 -7.92,-11.3969 -27.077404,-7.784 -33.064304,-19.0193 -2.808,-5.2697 1.3539,-10.2281 3.2624,-14.9815 4.7721,-11.886 3.7006,-29.0335696 -12.3951,-29.9567896 -3.5346,-0.20273 -7.5131,-0.37674 -11,0.29706 -13.687,2.64478 -14.1239,19.1404296 -9.7801,29.6597296 2.0476,4.9586 6.2088,9.374 3.3195,14.9568 -5.2315,10.1084 -23.4661,8.0217 -31.3257,17.0586 -5.3917,6.1994 -5.7428,14.3774 -7.6921,21.9846 -4.0430002,15.778004 -7.0579202,31.734004 -8.5964502,48.000004 -1.52330001,16.105 -4.2849786,59.028 16.4681482,60.13342 z"
       id="path36814"
       sodipodi:nodetypes="sssscccssccssscccccccsscccccccccssscccccscccccss" />
  </g>
</svg>
