<?xml version="1.0" encoding="UTF-8" standalone="no"?>
<!-- Created with Inkscape (http://www.inkscape.org/) -->

<svg
   version="1.1"
   id="svg14228"
   width="46.200001"
   height="182.56"
   viewBox="0 0 46.200001 182.56"
   sodipodi:docname="Niedowaga2.svg"
   inkscape:version="1.2 (56b05e47e7, 2022-06-09, custom)"
   xmlns:inkscape="http://www.inkscape.org/namespaces/inkscape"
   xmlns:sodipodi="http://sodipodi.sourceforge.net/DTD/sodipodi-0.dtd"
   xmlns="http://www.w3.org/2000/svg"
   xmlns:svg="http://www.w3.org/2000/svg">
  <defs
     id="defs14232" />
  <sodipodi:namedview
     id="namedview14230"
     pagecolor="#505050"
     bordercolor="#eeeeee"
     borderopacity="1"
     inkscape:showpageshadow="0"
     inkscape:pageopacity="0"
     inkscape:pagecheckerboard="0"
     inkscape:deskcolor="#505050"
     showgrid="false"
     inkscape:zoom="4.556175"
     inkscape:cx="-45.323105"
     inkscape:cy="179.86579"
     inkscape:window-width="1848"
     inkscape:window-height="1016"
     inkscape:window-x="72"
     inkscape:window-y="27"
     inkscape:window-maximized="1"
     inkscape:current-layer="g14234" />
  <g
     inkscape:groupmode="layer"
     inkscape:label="Image"
     id="g14234">
    <path
       style="fill:#008e63;stroke:#000000;stroke-width:0.32;fill-opacity:1;stroke-opacity:1"
       d="m 4.5605128,106.01586 c 0,0 0.05117,-0.0929 0.05328,-0.14405 0.04336,-1.04954 -0.684683,-2.03923 -0.845771,-3.03569 -0.130293,-0.80597 1.567228,2.74913 1.488809,1.83491 -0.216887,-2.52852 -3.195162,-5.190718 -1.326375,-6.122278 1.172766,-0.58461 2.425404,4.657938 2.5670243,2.977358 0.25293,-3.001478 -3.2030313,-10.515654 -3.2030313,-10.515654 l 3.8333123,-17.6 3.0237119,-22.72 h 0.32 c 2.336576,6.05696 6.25616,13.78688 4.629376,20.48 -0.553888,2.27872 -2.775232,3.74912 -3.889376,5.76 -1.9191999,3.46368 -2.6830079,7.28128 -2.9513599,11.2 -0.851424,12.432964 2.3586879,24.487684 3.1424639,36.800004 0.217664,3.4192 -0.989664,6.84384 -1.222464,10.24 -0.3609279,5.2656 0.330016,10.46944 0.915296,15.68 0.662656,5.89888 1.61312,11.98688 0.884448,17.92 -0.398624,3.24576 -2.9331199,7.6432 -2.0466559,10.8464 0.5368639,1.94016 3.7787519,1.94144 5.3241919,1.42464 1.969472,-0.65824 1.935648,-2.88768 1.700512,-4.59104 -0.7368,-5.33696 -1.921152,-9.59136 -1.020768,-15.04 0.891744,-5.39616 2.763488,-10.86688 3.145696,-16.32 0.325152,-4.63968 -0.601984,-9.1616 -0.601984,-13.76 0,-4.51232 1.107936,-9.25888 1.536288,-13.76 0.671744,-7.05856 1.726981,-18.491118 2.697513,-21.360372 0.572035,-1.691144 1.497816,3.182134 1.810904,5.040372 0.746976,4.43392 1.020864,8.96384 1.33456,13.44 0.356928,5.09248 1.441984,10.27104 1.566656,15.36 0.10992,4.48672 -1.005952,8.97728 -0.58096,13.44 0.679104,7.13152 3.049984,13.98848 3.731264,21.12 0.36928,3.86464 -0.68928,7.14752 -1.3488,10.88 -0.26336,1.49024 -0.507872,3.76352 0.62368,4.98112 1.37504,1.47968 6.15968,1.19552 6.48736,-1.1552 0.43136,-3.0928 -1.76704,-6.504 -2.13344,-9.58592 -0.7696,-6.46816 0.0864,-12.7728 0.856,-19.2 0.5392,-4.50272 1.29184,-9.21856 0.9808,-13.76 -0.29344,-4.28672 -1.51872,-8.47584 -1.2224,-12.8 0.9184,-13.41344 5.35552,-27.851844 2.24736,-41.280004 -1.01408,-4.38016 -4.15328,-6.71328 -5.7536,-10.56 -2.067264,-4.9696 0.61888,-11.30368 2.296,-16 0.65152,-1.82432 1.1504,-3.98304 2.46144,-5.44 0.02144,7.71424 1.3856,16.50048 3.16288,24 1.16672,4.92192 3.17504,9.96896 3.52832,15.04 0.2896,4.15296 -3.796311,7.742726 -2.8512,11.840004 0.365963,1.58654 0.961469,-4.820081 2.444336,-4.181518 2.37284,1.02181 -1.276334,4.705118 -2.173647,7.439448 -0.22311,0.67987 2.22204,-2.44983 2.142369,-1.73874 -0.09284,0.82866 -1.329447,3.982 -0.764875,3.3333 3.748988,-4.30764 3.791817,-11.572174 3.791817,-16.052494 0,-5.84704 -0.25792,-11.80704 -1.09696,-17.6 -0.35968,-2.48192 -1.63072,-4.89152 -1.76928,-7.36 -0.47392,-8.45344 1.75936,-19.33184 -2.0384,-27.19968 -2.47552,-5.12896 -11.412064,-0.53152 -13.405248,-6.40064 -1.371136,-4.037408 3.749248,-9.54448 5.014528,-13.11968 2.07008,-5.8488 -0.67104,-8.464736 -3.7928,-12.854304 -1.223104,-1.719776 -0.72976,-3.819392 -3.073088,-4.78448 -4.779329,-1.96830718 -5.453121,1.756864 -7.362945,4.718784 -2.570368,3.9863035 -5.730208,6.225664 -4.141984,11.64 1.238432,4.221888 7.445408,10.059424 5.524704,14.71872 -2.291328,5.5584 -10.8287999,0.9936 -13.4338242,5.76608 -1.5712,2.87872 -1.51696,6.11552 -1.733344,9.2752 -0.394016,5.7536 -0.214624,11.50656 -0.292608,17.28 -0.03485,2.58144 -1.4296,4.832 -1.823936,7.36 -1.66332104,10.66272 -3.354758,24.671477 2.504115,34.210044 m 20.4410702,-8.610038 -0.32,0.32 0.32,-0.32 m -20.9339942,5.395648 -0.32,0.32 0.32,-0.32 m 38.5339942,0.0444 -0.198915,0.37352 z"
       id="path14238"
       sodipodi:nodetypes="cassascccccccsscscccscsssccscccccccccccccccsassssccccccccsccscccccccacaaa" />
  </g>
</svg>
