<?xml version="1.0" encoding="UTF-8" standalone="no"?>
<!-- Created with Inkscape (http://www.inkscape.org/) -->

<svg
   version="1.1"
   id="svg24435"
   width="112"
   height="336"
   viewBox="0 0 112 336"
   sodipodi:docname="Niedowaga.svg"
   inkscape:version="1.2 (56b05e47e7, 2022-06-09, custom)"
   xmlns:inkscape="http://www.inkscape.org/namespaces/inkscape"
   xmlns:sodipodi="http://sodipodi.sourceforge.net/DTD/sodipodi-0.dtd"
   xmlns="http://www.w3.org/2000/svg"
   xmlns:svg="http://www.w3.org/2000/svg">
  <defs
     id="defs24439" />
  <sodipodi:namedview
     id="namedview24437"
     pagecolor="#505050"
     bordercolor="#eeeeee"
     borderopacity="1"
     inkscape:showpageshadow="0"
     inkscape:pageopacity="0"
     inkscape:pagecheckerboard="0"
     inkscape:deskcolor="#505050"
     showgrid="false"
     inkscape:zoom="2.4781341"
     inkscape:cx="-99.87353"
     inkscape:cy="164.43824"
     inkscape:window-width="1848"
     inkscape:window-height="1016"
     inkscape:window-x="72"
     inkscape:window-y="27"
     inkscape:window-maximized="1"
     inkscape:current-layer="g24441" />
  <g
     inkscape:groupmode="layer"
     inkscape:label="Image"
     id="g24441">
    <path
       style="fill:#008e63;stroke:#000000;fill-opacity:1;stroke-opacity:1"
       d="m 16.870074,192.61004 c 4.19192,2.14493 -9.5375962,-13.21859 -4.999996,-17 2.030334,-1.69198 2.249543,6.47557 4.999996,8 0.291548,0.16159 0.960453,0.33098 1,0 1.051723,-8.8021 -6.337486,-24.80021 -6.337486,-24.80021 l 5.635,-39 8.24,-33.000001 h 2 c 1.2569,15.793991 6.22171,29.716001 4.9066,46.000001 -0.588,7.281 -4.6787,13.855 -6.0987,21 -2.0007,10.066 -1.2168,21.763 -0.7685,32 0.7516,17.164 6.6938,33.888 7.8711,51 1.03141,14.992 -1.1277,28.879 1.70061,44 2.2577,12.07 5.4236,25.032 1.385,37 -1.2479,3.698 -6.54021,10.869 -2.6597,14.143 2.8596,2.412 14.9284,5.157 16.830996,0.539 1.4447,-3.506 -1.169996,-9.107 -1.728396,-12.682 -1.0492,-6.718 -0.9235,-14.239 -0.2692,-21 1.0321,-10.665 3.698496,-21.255 3.826296,-32 0.1121,-9.423 -2.350696,-18.661 -1.9567,-28 0.8997,-21.33 3.9606,-42.633 3.9606,-64 8.4775,2.624 5.3442,27.13 6.2855,35 2.3096,19.311 -0.7401,37.847 -0.2708,57 0.3193,13.035 3.4713,26.026 4.6851,39 0.5211,5.569 -5.7809,24.404 -1.868,27.972 3.2565,2.97 16.2946,0.428 17.3403,-4.105 1.2095,-5.245 -5.3221,-14.158 -5.9869,-19.867 -1.3183,-11.321 2.8215,-23.868 4.5401,-35 2.0227,-13.102 -0.9956,-26.158 0.561,-39 2.6946,-22.231 9.6633,-44.416 8.6743,-67 -0.5613,-12.82 -6.6964,-23.736 -7.8564,-36 -1.5551,-16.441 2.6232,-31.14401 5.8958,-47.000001 h 1 l 14.264996,75.000001 c 0,0 -8.204135,16.65469 -6.264996,23 0.09742,0.31878 0.71645,0.17524 1,0 2.536151,-1.56743 1.463849,-6.43257 3.999996,-8 0.28355,-0.17524 0.8003,-0.26689 1,0 3.53868,4.72934 -10.500194,19.1533 -4.999996,17 10.610456,-4.15395 13.728996,-21.136 14.014996,-33 0.654,-27.151 -0.768,-52.58901 -8.004,-79.000001 -1.644,-6.0004 -1.092,-13.5268 -4.150996,-18.9846 -6.827,-12.1813 -25.236,-3.8743 -31.1532,-16.0555 -2.5481,-5.2455 1.9731,-10.2147 3.8295,-14.9599 4.8198,-12.3205 4.1971,-29.7647694 -12.5363,-29.99614939 -2.9243,-0.04044 -6.1393,-0.3006 -8.999196,0.41512999 -13.8324,3.4617 -10.7221,21.8265194 -6.652,31.5810194 1.7523,4.1998 5.4172,8.277 3.1759,12.9846 -5.3566,11.2508 -21.38301,4.7588 -29.13041,13.2291 -4.9587,5.4214 -3.8212,13.1812 -5.5502,19.7863 -4.7284002,18.064 -9.3695202,37.227001 -9.8294402,56.000001 -0.32269,13.172 2.854,29.66929 3.96961,43.63914 0.49467,6.19442 3.48436,10.07076 11.4782162,14.16107 z"
       id="path24445"
       sodipodi:nodetypes="ssasccccsccscscccsscccccccssccscccsaaascccccscccscsss" />
  </g>
</svg>
