<?xml version="1.0" encoding="UTF-8" standalone="no"?>
<!-- Created with Inkscape (http://www.inkscape.org/) -->

<svg
   version="1.1"
   id="svg448"
   width="86.32"
   height="181.67999"
   viewBox="0 0 86.32 181.67999"
   sodipodi:docname="Otyłość III stopnia.svg"
   inkscape:version="1.2 (56b05e47e7, 2022-06-09, custom)"
   xmlns:inkscape="http://www.inkscape.org/namespaces/inkscape"
   xmlns:sodipodi="http://sodipodi.sourceforge.net/DTD/sodipodi-0.dtd"
   xmlns="http://www.w3.org/2000/svg"
   xmlns:svg="http://www.w3.org/2000/svg">
  <defs
     id="defs452" />
  <sodipodi:namedview
     id="namedview450"
     pagecolor="#505050"
     bordercolor="#eeeeee"
     borderopacity="1"
     inkscape:showpageshadow="0"
     inkscape:pageopacity="0"
     inkscape:pagecheckerboard="0"
     inkscape:deskcolor="#505050"
     showgrid="false"
     inkscape:zoom="3.2722168"
     inkscape:cx="-62.801462"
     inkscape:cy="63.718272"
     inkscape:window-width="1848"
     inkscape:window-height="1016"
     inkscape:window-x="72"
     inkscape:window-y="27"
     inkscape:window-maximized="1"
     inkscape:current-layer="g454" />
  <g
     inkscape:groupmode="layer"
     inkscape:label="Image"
     id="g454">
    <path
       style="fill:#b00000;fill-opacity:1;stroke:#000000;stroke-width:0.32;stroke-opacity:1"
       d="m 34.451195,30.098127 c -1.52224,0.792319 -2.31776,2.579839 -3.85728,3.189759 -2.377664,0.94176 -5.465216,0.904 -7.98272,1.49952 -5.265632,1.24608 -10.366016,3.78368 -14.0501116,7.79072 -6.269341,6.818879 -5.31648,16.512319 -5.803712,24.959998 -0.141152,2.44736 -1.82666902,4.5408 -2.13457002,7.04 -0.407062,3.304 1.11876502,6.28384 1.11876502,9.464319 0,7.43648 -0.005,16.333747 5.783097,20.377367 0.572064,0.39964 -0.386854,-2.80753 -0.508626,-3.5442 -0.167017,-1.010383 1.962454,3.8362 2.286869,3.13878 1.1093686,-2.3849 -2.714373,-5.740778 -1.458243,-7.914581 2.2448356,-3.884811 2.033379,4.851151 3.3534726,3.956071 C 14.157763,98.049117 8.9652754,89.938123 8.9652754,89.938123 l 3.4506236,-11.199999 1.10368,-6.6656 3.971616,-7.7344 h 0.32 c -1.725408,7.54432 -5.404096,14.8912 -5.747392,22.719999 -0.23392,5.33408 1.426112,9.61632 2.160224,14.719997 0.669216,4.65248 0.292512,9.1168 1.552096,13.76 0.7432,2.73952 2.700864,5.27776 3.227168,8 1.36736,7.07168 -0.885408,14.09088 0.55184,21.12 0.889216,4.3488 3.719488,7.39488 5.734336,11.2 1.130944,2.13568 0.63744,3.83488 1.038752,6.08 0.4304,2.40768 1.628416,4.1888 1.265952,6.72 -0.432576,3.0208 -2.430848,6.52288 -1.551136,9.59872 1.141632,3.99168 9.93424,3.59136 12.87056,2.05824 1.97856,-1.03296 1.1456,-2.93152 0.65792,-4.61696 -0.98848,-3.41536 -1.89312,-7.62944 -1.80704,-11.2 0.05824,-2.41536 -0.49248,-5.0032 -0.32896,-7.36 0.43104,-6.21216 1.7536,-12.33664 2.10592,-18.56 0.11648,-2.06336 -1.11328,-4.08544 -0.85792,-6.08 0.79424,-6.20032 4.13792,-11.96992 4.40768,-18.24 h 0.32 c 1.54432,5.96704 4.5088,12.42336 4.75936,18.56 0.07424,1.816 -0.93696,3.56832 -0.91328,5.44 0.06848,5.48608 1.49472,10.87072 1.88544,16.32 0.23904,3.33472 -0.65728,6.23936 -0.29856,9.6 0.36832,3.45504 -0.6208,7.54816 -1.47456,10.88 -0.36096,1.4096 -1.47648,3.39904 -0.29504,4.66592 2.32896,2.49728 12.24064,2.376 13.60608,-1.15968 1.19424,-3.09312 -1.09984,-6.856 -1.49696,-9.90624 -0.34528,-2.65184 1.13536,-3.97472 1.66144,-6.4 0.72704,-3.3504 -0.23872,-5.4608 1.79488,-8.64 1.84096,-2.87776 3.864,-5.54048 4.60576,-8.96 1.00384,-4.62784 -0.39904,-8.84864 -0.38656,-13.44 0.0035,-1.36256 0.85568,-2.5184 1.08672,-3.84 0.24416,-1.39584 -0.28928,-2.79872 -0.05216,-4.16 0.51616,-2.96544 2.64992,-5.95008 3.44224,-8.96 1.09696,-4.16608 0.66208,-8.30464 1.2624,-12.48 0.75552,-5.254717 2.40096,-9.551357 2.16032,-15.039997 -0.32864,-7.494399 -4.44224,-14.130239 -5.42752,-21.439999 h 0.32 l 3.60384,7.04 1.11456,6.4 3.46784,11.199999 c 0,0 -3.369171,6.72634 -2.443032,10.045738 0.640061,2.294059 1.980998,-3.492638 3.52,-3.199995 4.325855,0.822565 -4.191427,7.279184 -0.911793,7.437274 0.768292,0.037 2.460936,-3.17112 2.497841,-2.40282 0.03182,0.66247 -1.768472,3.64285 -1.046961,3.45067 3.747745,-0.99824 6.183305,-12.526387 6.162825,-18.850867 -0.0035,-1.11104 -0.63104,-2.0832 -0.57024,-3.2 0.18208,-3.340479 0.81088,-6.515519 0.57632,-9.919999 -0.15744,-2.28896 -1.128,-4.4496 -1.2384,-6.72 -0.39296,-8.085119 -0.34848,-17.045759 -5.87712,-23.679998 -3.54592,-4.25504 -8.7472,-6.56384 -13.97568,-7.99648 -3.27104,-0.89632 -6.84256,-1.57536 -10.24,-1.60352 -0.17088,-1.65664 -0.76608,-2.713472 -2.24,-3.519999 2.66112,-6.950143 7.76736,-21.9295989 -3.84,-23.9999989 -0.10048,-4.26793 -4.53696,-6.54624895 -8.30624,-4.646659 -1.91712,0.966179 -1.71072,2.710243 -2.84352,4.258499 -1.67296,2.286304 -4.22432,3.455583 -5.6976,6.1481599 -3.383328,6.182944 1.19584,12.756512 3.08736,18.559999 m 34.88,34.239997 v 0.96 h -0.32 l 0.32,-0.96 m 10.543208,37.245736 -0.380232,0.7121 0.380232,-0.7121 m -72.6697396,-0.044 0.04479,-0.0445 z"
       id="path458"
       sodipodi:nodetypes="cccssssssssscccccssccscsssccsscccccccccccsccsccccsccccccsssssccccccccccccccccccacaaa" />
  </g>
</svg>
