<?xml version="1.0" encoding="UTF-8" standalone="no"?>
<!-- Created with Inkscape (http://www.inkscape.org/) -->

<svg
   version="1.1"
   id="svg3929"
   width="64.120003"
   height="181.92"
   viewBox="0 0 64.120003 181.92"
   sodipodi:docname="Otyłość I stopnia.svg"
   inkscape:version="1.2 (56b05e47e7, 2022-06-09, custom)"
   xmlns:inkscape="http://www.inkscape.org/namespaces/inkscape"
   xmlns:sodipodi="http://sodipodi.sourceforge.net/DTD/sodipodi-0.dtd"
   xmlns="http://www.w3.org/2000/svg"
   xmlns:svg="http://www.w3.org/2000/svg">
  <defs
     id="defs3933" />
  <sodipodi:namedview
     id="namedview3931"
     pagecolor="#505050"
     bordercolor="#eeeeee"
     borderopacity="1"
     inkscape:showpageshadow="0"
     inkscape:pageopacity="0"
     inkscape:pagecheckerboard="0"
     inkscape:deskcolor="#505050"
     showgrid="false"
     inkscape:zoom="3.2327924"
     inkscape:cx="-42.223559"
     inkscape:cy="112.44149"
     inkscape:window-width="1848"
     inkscape:window-height="1016"
     inkscape:window-x="72"
     inkscape:window-y="27"
     inkscape:window-maximized="1"
     inkscape:current-layer="g3935" />
  <g
     inkscape:groupmode="layer"
     inkscape:label="Image"
     id="g3935">
    <path
       style="fill:#ff9100;fill-opacity:1;stroke:#000000;stroke-width:0.32;stroke-opacity:1"
       d="m 28.028436,5.2800377 c -7.20048,3.1153281 -5.800832,12.0197763 -3.500256,17.9200003 1.06048,2.719712 2.87088,5.760992 1.187168,8.63968 -1.664736,2.8464 -4.753664,2.87168 -7.606912,3.65632 -4.017472,1.10528 -8.111328,2.85888 -10.709632,6.264 -4.462785,5.84864 -2.727937,15.87712 -3.063201,22.72 -0.164672,3.36032 -2.329216,6.6096 -3.02272,9.92 -0.68812496,3.2848 -0.35163796,6.59936 -0.49703996,9.92 -0.365984,8.35808 -1.667869,18.458752 4.91321496,21.955512 0.796901,0.42342 -0.848179,-2.16304 -0.691326,-3.07378 0.0392,-0.22761 1.818362,3.51371 2.117385,2.78957 C 8.275033,103.27926 2.581752,99.70078 5.04148,97.494444 7.49865,95.290397 5.888081,102.0036 7.346706,101.49061 9.455482,100.74896 7.967013,96.890079 7.578324,94.637797 7.2811,92.915516 5.655091,89.760038 5.655091,89.760038 l 3.485184,-11.52 3.848161,-15.04 c 1.200352,2.84032 1.279744,6.25248 1.787648,9.28 0.190784,1.13728 0.766208,2.71776 0.35088,3.84 -0.663904,1.79424 -2.75168,3.14016 -3.761984,4.8 -2.646273,4.34752 -2.746636,9.734455 -2.662112,14.72 0.0814,4.800972 1.798592,9.363522 3.042592,14.080002 1.338944,5.07616 2.076768,10.4784 2.750368,15.68 0.6344,4.89888 -1.826912,9.98432 -1.478752,15.04 0.483328,7.01856 3.562432,13.6832 5.127424,20.48 0.961664,4.17664 1.22912,8.32704 0.05677,12.48 -0.495936,1.7568 -1.852608,4.72032 -0.311104,6.26592 1.67376,1.6784 9.005504,1.75232 9.87184,-0.84352 0.45856,-1.37408 -0.518208,-3.14688 -0.860736,-4.4624 -0.846432,-3.2512 -1.928096,-6.53504 -2.06,-9.92 -0.349504,-8.96992 4.044736,-17.488 3.822464,-26.56 -0.144416,-5.89568 -0.132224,-11.40864 0.785184,-17.28 0.61504,-3.93536 2.2464,-7.86624 2.41952,-11.84 h 0.64 c 0.177921,4.13664 1.934401,8.06976 2.467521,12.16 0.98304,7.5424 0.0624,14.91424 0.78688,22.4 0.64896,6.70848 3.1808,13.09024 3.6816,19.84 0.24,3.23264 -0.75392,6.86272 -1.70688,9.92 -0.4688,1.50432 -1.53728,3.85408 -1.2576,5.43424 0.48384,2.73216 7.61376,2.79968 9.4496,1.60288 2.35168,-1.53312 0.74112,-4.64096 0.15584,-6.71712 -1.60736,-5.704 -0.30528,-11.40064 1.27968,-16.96 1.63488,-5.73376 3.95264,-11.55968 4.02208,-17.6 0.05408,-4.69664 -2.18464,-9.4176 -1.45824,-14.08 0.7776,-4.99072 1.3168,-10.1392 2.57248,-15.04 1.57824,-6.15936 3.959681,-11.72736 3.674561,-18.240002 -0.16384,-3.73568 -1.364801,-7.70368 -3.337281,-10.88 -0.9936,-1.6 -3.27392,-2.9632 -3.72544,-4.8 -0.9392,-3.81856 1.46464,-9.47008 1.6352,-13.44 3.02368,3.36 2.55552,8.0704 3.48416,12.16 1.0896,4.79904 4.689281,10.4112 4.427841,15.36 -0.08768,1.6576 -1.26208,2.96544 -1.79872,4.48 -0.73472,2.07392 -1.462328,5.438512 -0.67328,6.400002 1.01501,1.23683 1.31691,-4.181691 2.88,-3.840002 3.379969,0.738852 -2.699913,5.525052 -2.56,6.720002 0.11095,0.94758 1.888258,-0.945 2.683621,-1.47189 1.333026,-0.88308 -2.279901,2.66255 -1.083621,3.71189 6.367432,-5.16273 5.52704,-13.264002 5.44128,-20.480002 -0.0448,-3.75136 0.14976,-7.84384 -0.64608,-11.52 -0.6688,-3.09056 -2.68512,-6.13568 -2.86144,-9.28 -0.40672,-7.256 1.31904,-17.16512 -3.43264,-23.35968 -2.380161,-3.10304 -6.294081,-5.184 -10.021121,-6.19552 -3.0928,-0.83904 -6.93152,-0.7376 -8.58272,-4.0448 -1.39296,-2.790176 1.23392,-6.772224 2.2752,-9.28 1.65184,-3.976704 2.15328,-8.810048 0.25568,-12.7997442 -0.87232,-1.8339201 -2.49408,-2.4740161 -3.67616,-3.9605121 -1.18496,-1.48944 -0.81408,-3.425056 -2.76576,-4.45949115 -3.079683,-1.632304 -6.754659,1.26566715 -6.066243,4.57974715 M 5.857303,102.28418 l 0.63302,0.60035 z"
       id="path3939"
       sodipodi:nodetypes="ccccccsssssssacccsccacsssscscscccccccccsccccccscccccssssccccccccccscaaa" />
  </g>
</svg>
