<?xml version="1.0" encoding="UTF-8" standalone="no"?>
<!-- Created with Inkscape (http://www.inkscape.org/) -->

<svg
   version="1.1"
   id="svg37942"
   width="143"
   height="338"
   viewBox="0 0 143 338"
   sodipodi:docname="Otyłość I stopnia.svg"
   inkscape:version="1.2 (56b05e47e7, 2022-06-09, custom)"
   xmlns:inkscape="http://www.inkscape.org/namespaces/inkscape"
   xmlns:sodipodi="http://sodipodi.sourceforge.net/DTD/sodipodi-0.dtd"
   xmlns="http://www.w3.org/2000/svg"
   xmlns:svg="http://www.w3.org/2000/svg">
  <defs
     id="defs37946" />
  <sodipodi:namedview
     id="namedview37944"
     pagecolor="#505050"
     bordercolor="#eeeeee"
     borderopacity="1"
     inkscape:showpageshadow="0"
     inkscape:pageopacity="0"
     inkscape:pagecheckerboard="0"
     inkscape:deskcolor="#505050"
     showgrid="false"
     inkscape:zoom="2.4709302"
     inkscape:cx="141.84941"
     inkscape:cy="139.01647"
     inkscape:window-width="1848"
     inkscape:window-height="1016"
     inkscape:window-x="72"
     inkscape:window-y="27"
     inkscape:window-maximized="1"
     inkscape:current-layer="g37948" />
  <g
     inkscape:groupmode="layer"
     inkscape:label="Image"
     id="g37948">
    <path
       style="fill:#ff9100;stroke:#000000;stroke-opacity:1;fill-opacity:1"
       d="m 20.725164,189.52702 c 3.487295,0.18123 -10.673851,-13.47951 -5,-16 4.083434,-1.81398 6.566401,11.6458 8.32135,8.27465 2.710766,-5.2072 -6.06445,-18.27465 -6.06445,-18.27465 l 4.1281,-19 1.0093,-19 11.6057,-26.999998 c 2.1336,8.986998 -2.3321,16.454998 -4.5216,24.999998 -2.8489,11.118 -3.744,22.561 -3.4637,34 0.6416,26.19 12.487,48.83 16.6998,74 3.1031,18.54 -2.3371,36.345 1.9367,55 1.8913,8.255 7.2878,19.562 5.5494,28 -0.8941,4.34 -7.4108,14.301 -3.5933,17.991 3.3053,3.195 18.69,5.578 20.466,-0.139 1.049795,-3.379 -1.152,-8.418 -1.6451,-11.852 -0.9245,-6.439 -0.894,-13.524 -0.2584,-20 1.02,-10.392 4.332395,-20.53 4.790795,-31 0.6874,-15.698 -2.4264,-31.232 -1.9174,-47 0.3557,-11.019 2.8653,-21.949 2.9568,-33 h 1 c 0,38.104 1.1985,76.24 5.7145,114 1.0162,8.496 -4.6416,21.36 -2.0208,28.852 2.0024,5.724 17.4712,3.47 20.52,-0.366 2.671297,-3.361 -1.3332,-9.038 -2.3503,-12.486 -2.1562,-7.31 -1.2048,-12.771 0.8465,-20 2.758097,-9.719 6.110101,-20.823 6.111101,-31 0.001,-11.714 -3.226004,-23.19 -1.382,-35 3.711,-23.761 15.942,-45.347 16.546,-70 0.312,-12.701 0.623,-25.593 -2.46,-38 -2.121,-8.533 -7.99,-18.363 -4.525,-26.999998 l 10.748,25.999998 1.712,21 3.773,17 c 0,0 -8.2841,13.1029 -6.233,18 1.46825,3.50552 5.56765,-8.63199 9,-7 6.19123,2.94376 -11.47536,17.57 -6,16 20.01238,-5.73834 15.996,-19.67 17.17,-32 2.795,-29.353 2.988,-65.837701 -17.185,-89.910501 -5.151,-6.1462 -11.282,-10.4513 -18.985,-12.662 -5.737004,-1.6464 -14.666501,-2.0458 -18.239201,-7.5355 -3.2312,-4.9649 2.0567,-11.3819 4.0409,-15.892 5.674,-12.8972 3.0618,-29.4835507 -13.8017,-29.9845607 -3.5764,-0.10626 -7.471,-0.3406 -10.999995,0.32407 -14.3698,2.7064805 -15.345,18.3788907 -10.4745,29.6604907 1.8515,4.2887 7.3249,10.0826 4.6273,14.956 -5.1466,9.2975 -23.932,8.4355 -32.1381,15.3727 -18.4819,15.6239 -20.6788896,40.527301 -23.3001896,62.671301 -1.75357,14.813 -2.65076997,36.851 2.03549,51 2.3286996,7.031 8.3587156,13.64187 15.2499996,14 z"
       id="path38432"
       sodipodi:nodetypes="sssccccccscssccscscccssccccccccccssscccccssccccss" />
  </g>
</svg>
