<?xml version="1.0" encoding="UTF-8" standalone="no"?>
<!-- Created with Inkscape (http://www.inkscape.org/) -->

<svg
   version="1.1"
   id="svg37942"
   width="143"
   height="338"
   viewBox="0 0 143 338"
   sodipodi:docname="Otyłość II stopnia.svg"
   inkscape:version="1.2 (56b05e47e7, 2022-06-09, custom)"
   xmlns:inkscape="http://www.inkscape.org/namespaces/inkscape"
   xmlns:sodipodi="http://sodipodi.sourceforge.net/DTD/sodipodi-0.dtd"
   xmlns="http://www.w3.org/2000/svg"
   xmlns:svg="http://www.w3.org/2000/svg">
  <defs
     id="defs37946" />
  <sodipodi:namedview
     id="namedview37944"
     pagecolor="#505050"
     bordercolor="#eeeeee"
     borderopacity="1"
     inkscape:showpageshadow="0"
     inkscape:pageopacity="0"
     inkscape:pagecheckerboard="0"
     inkscape:deskcolor="#505050"
     showgrid="false"
     inkscape:zoom="2.4709302"
     inkscape:cx="141.84941"
     inkscape:cy="171.39294"
     inkscape:window-width="1848"
     inkscape:window-height="1016"
     inkscape:window-x="72"
     inkscape:window-y="27"
     inkscape:window-maximized="1"
     inkscape:current-layer="g37948" />
  <g
     inkscape:groupmode="layer"
     inkscape:label="Image"
     id="g37948">
    <path
       style="fill:#ff0000;fill-opacity:1;stroke:#000000;stroke-opacity:1"
       d="m 20.725164,189.52702 c 3.487295,0.18123 -10.673851,-13.47951 -5,-16 4.083434,-1.81398 6.566401,11.6458 8.32135,8.27465 2.710766,-5.2072 -6.06445,-18.27465 -6.06445,-18.27465 l 4.1281,-19 1.0093,-19 11.6057,-26.999998 c 2.1336,8.986998 -4.017395,14.967858 -6.206895,23.512858 -2.8489,11.118 -4.520188,24.26457 -4.239888,35.70357 0.6416,26.19 9.832476,48.98043 14.045276,74.15043 3.1031,18.54 0.02983,36.37548 4.303627,55.03048 1.8913,8.255 10.03688,19.16466 8.29848,27.60266 -0.8941,4.34 -7.4108,14.301 -3.5933,17.991 3.3053,3.195 18.69,5.578 20.466,-0.139 1.049795,-3.379 -1.152,-8.418 -1.6451,-11.852 -0.9245,-6.439 0.614063,-13.18105 1.249663,-19.65705 1.02,-10.392 2.824332,-20.87295 3.282732,-31.34295 0.6874,-15.698 -2.4264,-31.232 -1.9174,-47 0.3557,-11.019 2.8653,-21.949 2.9568,-33 h 1 c 0,38.104 -0.728768,76.24 3.787232,114 1.0162,8.496 -2.714332,21.36 -0.09353,28.852 2.0024,5.724 17.4712,3.47 20.52,-0.366 2.671297,-3.361 -1.3332,-9.038 -2.3503,-12.486 -2.1562,-7.31 0.760113,-12.771 2.811413,-20 2.758098,-9.719 4.883808,-20.18615 4.146188,-31 0.001,-11.714 -2.486665,-22.71401 -0.64267,-34.52401 3.711,-23.761 17.14953,-45.60288 17.75353,-70.25588 0.312,-12.701 1.78302,-25.81311 -1.29998,-38.22011 -2.121,-8.533 -11.09688,-18.363 -7.63188,-26.999998 l 10.748,25.999998 1.712,21 3.773,17 c 0,0 -8.2841,13.1029 -6.233,18 1.46825,3.50552 5.56765,-8.63199 9,-7 6.19123,2.94376 -11.47536,17.57 -6,16 20.01238,-5.73834 15.996,-19.67 17.17,-32 2.795,-29.353 6.61358,-67.426969 -13.55942,-91.499769 -5.151,-6.1462 -11.82538,-10.331672 -19.52838,-12.542372 -5.737,-1.6464 -17.748701,-0.57616 -21.321401,-6.06586 -3.2312,-4.9649 2.0567,-11.3819 4.0409,-15.892 5.674,-12.8972 3.0618,-29.4835507 -13.8017,-29.9845607 -3.5764,-0.10626 -7.471,-0.3406 -10.999995,0.32407 -14.3698,2.7064805 -15.345,18.3788907 -10.4745,29.6604907 1.8515,4.2887 7.3249,10.0826 4.6273,14.956 -5.1466,9.2975 -28.37591,8.044281 -36.58201,14.981481 -18.4818997,15.6239 -20.0054705,40.91852 -18.8562796,63.06252 -1.75357,14.813 -2.65076997,36.851 2.03549,51 2.3286996,7.031 8.3587156,13.64187 15.2499996,14 z"
       id="path38432"
       sodipodi:nodetypes="sssccccccscssccscscccssccccccccccssscccccssccccss" />
  </g>
</svg>
