<?xml version="1.0" encoding="UTF-8" standalone="no"?>
<!-- Created with Inkscape (http://www.inkscape.org/) -->

<svg
   version="1.1"
   id="svg10795"
   width="52.040001"
   height="183.28"
   viewBox="0 0 52.040001 183.28"
   sodipodi:docname="Prawidłowa masa ciała.svg"
   inkscape:version="1.2 (56b05e47e7, 2022-06-09, custom)"
   xmlns:inkscape="http://www.inkscape.org/namespaces/inkscape"
   xmlns:sodipodi="http://sodipodi.sourceforge.net/DTD/sodipodi-0.dtd"
   xmlns="http://www.w3.org/2000/svg"
   xmlns:svg="http://www.w3.org/2000/svg">
  <defs
     id="defs10799" />
  <sodipodi:namedview
     id="namedview10797"
     pagecolor="#505050"
     bordercolor="#eeeeee"
     borderopacity="1"
     inkscape:showpageshadow="0"
     inkscape:pageopacity="0"
     inkscape:pagecheckerboard="0"
     inkscape:deskcolor="#505050"
     showgrid="false"
     inkscape:zoom="4.5876512"
     inkscape:cx="-64.847999"
     inkscape:cy="93.620893"
     inkscape:window-width="1848"
     inkscape:window-height="1016"
     inkscape:window-x="72"
     inkscape:window-y="27"
     inkscape:window-maximized="1"
     inkscape:current-layer="g10801" />
  <g
     inkscape:groupmode="layer"
     inkscape:label="Image"
     id="g10801">
    <path
       style="fill:#26be00;stroke:#000000;stroke-width:0.32;fill-opacity:1;stroke-opacity:1"
       d="m 4.5389978,107.27564 c 1.223833,-0.87344 -1.31791,-4.64867 -0.32,-3.84 0.349907,0.28355 2.477017,3.41282 2.437398,2.34689 -0.07687,-2.06817 -4.973139,-5.30974 -2.437398,-7.466895 1.36788,-1.163653 2.504905,5.804315 2.88,4.160005 0.920839,-4.0367 -2.729248,-8.572805 -2.184704,-13.440005 1.236704,-11.05344 6.8251522,-21.79104 7.3047042,-32.96 3.452224,3.48384 5.047648,10.9344 3.25952,15.68 -1.245088,3.30432 -3.814688,5.90656 -5.04,9.28 -1.1659522,3.20992 -1.4192962,6.85088 -1.4195202,10.24 -7.36e-4,11.280965 2.4548482,22.096005 3.1711042,33.280005 0.27248,4.25472 -1.244256,8.53536 -1.251104,12.8 -0.01216,7.5696 1.376192,14.87712 1.89136,22.4 0.33456,4.88544 0.368352,10.00896 -1.14592,14.72 -0.532576,1.65696 -1.9773122,4.9616 -0.552352,6.51104 1.592224,1.73152 8.307008,1.44352 9.066432,-1.08512 0.451072,-1.50208 -0.396064,-3.6016 -0.645184,-5.10592 -0.564352,-3.40704 -1.071712,-7.10464 -0.921728,-10.56 0.305888,-7.04832 2.901312,-13.82048 3.736032,-20.8 0.447008,-3.7376 -0.210432,-7.47808 -0.228384,-11.2 -0.05661,-11.73472 3.337792,-23.2192 3.839744,-34.880005 h 0.320001 c 0.500864,11.665285 3.896352,23.146885 3.839744,34.880005 -0.01891,3.92064 -0.737984,7.9072 -0.227136,11.84 0.893632,6.87936 3.440832,13.50752 3.734912,20.48 0.13632,3.2336 -0.3472,6.72928 -0.8688,9.92 -0.264,1.61568 -1.04736,3.81632 -0.55296,5.42592 0.77056,2.50976 7.28512,2.85312 8.8768,1.08512 1.500479,-1.66688 -0.09664,-4.4528 -0.56608,-6.19104 -1.34656,-4.98592 -1.4384,-10.24128 -1.08768,-15.36 0.5152,-7.52608 1.92736,-14.82272 1.89088,-22.4 -0.02048,-4.26784 -1.56256,-8.52576 -1.25088,-12.8 0.81536,-11.18016 3.188479,-21.98944 3.171199,-33.280005 -0.0051,-3.224 -0.2864,-6.87872 -1.428479,-9.92 -1.29472,-3.44832 -3.9008,-6.18528 -5.11584,-9.6 -1.67584,-4.70912 -0.05536,-11.94816 3.34432,-15.36 l 3.021119,13.44 1.21408,7.36 3.03232,12.16 c 0,0 -3.058316,8.679216 -1.955782,12.081925 0.483297,1.49157 0.87817,-5.680398 2.391902,-3.782798 1.693081,2.122429 -2.393033,5.597858 -1.602613,7.677458 0.290863,0.76526 2.012669,-3.7919 1.770711,-2.61466 -0.253215,1.232 -0.990654,2.86596 -0.877843,3.48146 0.475797,2.59595 4.214788,-10.009145 3.655428,-15.883385 -0.50624,-5.31552 0.196437,-10.70368 -0.501803,-16 -0.34528,-2.61824 -1.80416,-4.82656 -2.34272,-7.36 -0.44576,-2.09632 -0.07104,-4.57632 -0.12,-6.72 -0.136,-5.9424 1.25216,-14.17664 -1.83776,-19.51968 -3.03904,-5.25472 -12.751039,-2.67424 -14.884799,-8.64064 -1.173024,-3.279744 3.21888,-8.390432 4.1008,-11.51968 0.92256,-3.274272 0.82208,-7.594368 -0.97632,-10.5597442 -0.72256,-1.191648 -2.0144,-1.863328 -2.71808,-3.000256 -1.308,-2.11296 -0.766688,-4.48368 -3.84864,-5.3335744 -4.711201,-1.29918084 -5.014049,2.5637504 -6.728641,5.3335744 -0.63696,1.02896 -1.830752,1.632224 -2.508896,2.681216 -1.904192,2.9455682 -2.146624,7.2247362 -1.272576,10.5587842 0.874496,3.335904 5.653536,8.982944 4.040224,12.47872 -2.620352,5.67808 -11.6098242,2.66464 -14.6360322,8.00128 -3.895648,6.87008 -1.574592,17.36096 -1.946912,24.96 -0.137088,2.79776 -1.892288,5.264 -2.398784,8 -0.7597,4.104 -0.448823,8.34112 -0.842704,12.48 -0.33031701,3.47104 -1.21765201,7.40736 -0.85012501,10.88 0.408025,3.855035 2.24158201,6.421615 3.56763001,9.925295 m 44.2485532,-4.56337 -0.32,0.32 0.32,-0.32 m -24.831738,5.19808 -0.32,0.32 z"
       id="path11894"
       sodipodi:nodetypes="cssssccccsssssccccssccscccccsccccccccccssssscccccccccssccccscscccacccc" />
  </g>
</svg>
