<?xml version="1.0" encoding="UTF-8" standalone="no"?>
<!-- Created with Inkscape (http://www.inkscape.org/) -->

<svg
   version="1.1"
   id="svg24435"
   width="112"
   height="336"
   viewBox="0 0 112 336"
   sodipodi:docname="Wychudzenie.svg"
   inkscape:version="1.2 (56b05e47e7, 2022-06-09, custom)"
   xmlns:inkscape="http://www.inkscape.org/namespaces/inkscape"
   xmlns:sodipodi="http://sodipodi.sourceforge.net/DTD/sodipodi-0.dtd"
   xmlns="http://www.w3.org/2000/svg"
   xmlns:svg="http://www.w3.org/2000/svg">
  <defs
     id="defs24439" />
  <sodipodi:namedview
     id="namedview24437"
     pagecolor="#505050"
     bordercolor="#eeeeee"
     borderopacity="1"
     inkscape:showpageshadow="0"
     inkscape:pageopacity="0"
     inkscape:pagecheckerboard="0"
     inkscape:deskcolor="#505050"
     showgrid="false"
     inkscape:zoom="4.9562682"
     inkscape:cx="-7.5661765"
     inkscape:cy="63.253236"
     inkscape:window-width="1848"
     inkscape:window-height="1016"
     inkscape:window-x="72"
     inkscape:window-y="27"
     inkscape:window-maximized="1"
     inkscape:current-layer="g24441" />
  <g
     inkscape:groupmode="layer"
     inkscape:label="Image"
     id="g24441">
    <path
       style="fill:#00c187;fill-opacity:1;stroke:#000000;stroke-opacity:1"
       d="m 16.870074,192.61004 c 4.19192,2.14493 -9.5375962,-13.21859 -4.999996,-17 2.030334,-1.69198 2.249543,6.47557 4.999996,8 0.291548,0.16159 0.960453,0.33098 1,0 1.051723,-8.8021 -6.337486,-24.80021 -6.337486,-24.80021 l 5.635,-39 8.24,-33.000001 h 2 c 1.2569,15.793991 9.265249,29.531321 7.950139,45.815321 -0.588,7.281 -4.665413,14.03968 -6.085413,21.18468 -2.0007,10.066 -1.696163,21.54386 -1.247863,31.78086 0.7516,17.164 4.116337,34.10714 5.293637,51.21914 1.03141,14.992 0.527352,28.17479 3.355662,43.29579 2.2577,12.07 3.768548,25.73621 -0.270052,37.70421 -1.2479,3.698 -6.54021,10.869 -2.6597,14.143 2.8596,2.412 14.9284,5.157 16.830996,0.539 1.4447,-3.506 -1.169996,-9.107 -1.728396,-12.682 -1.0492,-6.718 -0.9235,-14.239 -0.2692,-21 1.0321,-10.665 1.955123,-21.49478 2.082923,-32.23978 0.1121,-9.423 -0.607323,-18.42122 -0.213327,-27.76022 0.8997,-21.33 1.702071,-58.90504 3.9606,-64 4.803606,-10.83634 5.3442,27.13 6.2855,35 2.3096,19.311 1.644625,37.52103 2.113925,56.67403 0.3193,13.035 1.086575,26.35197 2.300375,39.32597 0.5211,5.569 -5.7809,24.404 -1.868,27.972 3.2565,2.97 16.2946,0.428 17.3403,-4.105 1.2095,-5.245 -5.3221,-14.158 -5.9869,-19.867 -1.3183,-11.321 0.755875,-24.06976 2.474475,-35.20176 2.0227,-13.102 1.070025,-25.95624 2.626625,-38.79824 2.6946,-22.231 6.419942,-44.62167 5.430942,-67.20567 -0.5613,-12.82 -7.078132,-23.32462 -8.238132,-35.58862 -1.5551,-16.441 6.24829,-31.34972 9.52089,-47.205711 h 1 l 14.264996,75.000001 c 0,0 -8.204135,16.65469 -6.264996,23 0.09742,0.31878 0.71645,0.17524 1,0 2.536151,-1.56743 1.463849,-6.43257 3.999996,-8 0.28355,-0.17524 0.8003,-0.26689 1,0 3.53868,4.72934 -10.500194,19.1533 -4.999996,17 10.610456,-4.15395 12.758106,-20.88174 13.044106,-32.74574 0.654,-27.151 -1.5457,-51.7567 -8.7817,-78.167688 -1.644005,-6.0004 -4.360805,-15.098752 -7.419801,-20.556552 -6.827,-12.1813 -20.218605,-3.388921 -26.135805,-15.570121 -2.5481,-5.2455 1.9731,-10.2147 3.8295,-14.9599 4.8198,-12.3205 4.1971,-29.7647694 -12.5363,-29.99614939 -2.9243,-0.04044 -6.1393,-0.3006 -8.999196,0.41512999 -13.8324,3.4617 -10.7221,21.8265194 -6.652,31.5810194 1.7523,4.1998 5.4172,8.277 3.1759,12.9846 -5.3566,11.2508 -15.510972,3.340893 -23.258372,11.811193 -4.9587,5.4214 -7.488321,14.800872 -9.217321,21.405972 -4.7283999,18.064 -9.0220964,37.273886 -9.4820164,56.046886 -0.32269,13.172 0.3016592,29.42064 1.4172692,43.39049 0.49467,6.19442 3.48436,10.07076 11.4782162,14.16107 z"
       id="path24445"
       sodipodi:nodetypes="ssasccccsccscscccsscscccccssccscccsaaascccccscccscsss" />
  </g>
</svg>
