<?xml version="1.0" encoding="UTF-8" standalone="no"?>
<!-- Created with Inkscape (http://www.inkscape.org/) -->

<svg
   version="1.1"
   id="svg14228"
   width="46.200001"
   height="182.56"
   viewBox="0 0 46.200001 182.56"
   sodipodi:docname="Wygłodzenie.svg"
   inkscape:version="1.2 (56b05e47e7, 2022-06-09, custom)"
   xmlns:inkscape="http://www.inkscape.org/namespaces/inkscape"
   xmlns:sodipodi="http://sodipodi.sourceforge.net/DTD/sodipodi-0.dtd"
   xmlns="http://www.w3.org/2000/svg"
   xmlns:svg="http://www.w3.org/2000/svg">
  <defs
     id="defs14232" />
  <sodipodi:namedview
     id="namedview14230"
     pagecolor="#505050"
     bordercolor="#eeeeee"
     borderopacity="1"
     inkscape:showpageshadow="0"
     inkscape:pageopacity="0"
     inkscape:pagecheckerboard="0"
     inkscape:deskcolor="#505050"
     showgrid="false"
     inkscape:zoom="4.556175"
     inkscape:cx="-19.204706"
     inkscape:cy="97.12094"
     inkscape:window-width="1848"
     inkscape:window-height="1016"
     inkscape:window-x="72"
     inkscape:window-y="27"
     inkscape:window-maximized="1"
     inkscape:current-layer="g14234" />
  <g
     inkscape:groupmode="layer"
     inkscape:label="Image"
     id="g14234">
    <path
       style="fill:#00ffd9;fill-opacity:1;stroke:#000000;stroke-width:0.32;stroke-opacity:1"
       d="m 4.5605128,106.01586 c 0,0 0.05117,-0.0929 0.05328,-0.14405 0.04336,-1.04954 -0.684683,-2.03923 -0.845771,-3.03569 -0.130293,-0.80597 1.567228,2.74913 1.488809,1.83491 -0.216887,-2.52852 -3.195162,-5.190718 -1.326375,-6.122278 1.172766,-0.58461 2.425404,4.657938 2.5670243,2.977358 0.25293,-3.001478 -3.2030313,-10.515654 -3.2030313,-10.515654 l 3.8333123,-17.6 4.4941119,-24.659071 0.03599,0.176856 c 2.336576,6.05696 6.64641,15.178739 5.019626,21.871859 -0.553888,2.27872 -2.671667,4.386364 -3.785811,6.397244 -1.9192,3.46368 -2.225114,6.158714 -2.493466,10.077434 -0.8514244,12.432964 1.359476,25.343362 2.143252,37.655682 0.217664,3.4192 -1.482079,6.84384 -1.714879,10.24 -0.360928,5.2656 -0.316455,10.46944 0.268825,15.68 0.662656,5.89888 1.951239,11.82055 1.222567,17.75367 -0.398624,3.24576 -3.2712389,7.80953 -2.3847749,11.01273 0.5368639,1.94016 3.7787519,1.94144 5.3241919,1.42464 1.969472,-0.65824 1.935648,-2.88768 1.700512,-4.59104 -0.7368,-5.33696 -1.921152,-9.59136 -1.020768,-15.04 0.891744,-5.39616 0.956054,-10.67821 1.338262,-16.13133 0.325152,-4.63968 1.20545,-9.35027 1.20545,-13.94867 0,-4.51232 -0.699136,-9.76321 -0.270784,-14.26433 0.671744,-7.05856 3.534053,-17.986788 4.504585,-20.856042 0.572035,-1.691144 2.489345,2.986229 2.802433,4.844462 0.746976,4.43392 1.745903,8.46847 2.059599,12.94463 0.356928,5.09248 -0.274584,10.96232 -0.149912,16.05128 0.10992,4.48672 1.683122,8.58277 2.108114,13.04549 0.679104,7.13152 0.36091,14.38299 1.04219,21.51451 0.36928,3.86464 -0.68928,7.14752 -1.3488,10.88 -0.26336,1.49024 -0.507872,3.76352 0.62368,4.98112 1.37504,1.47968 6.15968,1.19552 6.48736,-1.1552 0.43136,-3.0928 -2.257647,-6.504 -2.624047,-9.58592 -0.7696,-6.46816 0.577007,-12.7728 1.346607,-19.2 0.5392,-4.50272 0.239439,-9.21856 -0.0716,-13.76 -0.29344,-4.28672 -1.446059,-8.47584 -1.149739,-12.8 0.9184,-13.41344 4.544263,-27.858435 1.436103,-41.286595 -1.01408,-4.38016 -3.314816,-6.761333 -4.915136,-10.608053 -2.067264,-4.9696 -0.339962,-12.655048 1.337158,-17.351368 0.65152,-1.82432 1.279311,-4.76514 2.590351,-6.2221 0.02144,7.71424 3.168064,18.688592 4.945344,26.188112 1.16672,4.92192 3.17504,9.96896 3.52832,15.04 0.2896,4.15296 -3.796311,7.742726 -2.8512,11.840004 0.365963,1.58654 0.961469,-4.820081 2.444336,-4.181518 2.37284,1.02181 -1.276334,4.705118 -2.173647,7.439448 -0.22311,0.67987 2.22204,-2.44983 2.142369,-1.73874 -0.09284,0.82866 -1.329447,3.982 -0.764875,3.3333 3.748988,-4.30764 3.791817,-11.572174 3.791817,-16.052494 0,-5.84704 -1.075928,-11.80704 -1.914968,-17.6 -0.35968,-2.48192 -2.115272,-5.073908 -2.253832,-7.542388 -0.47392,-8.45344 -0.614409,-18.750951 -4.412169,-26.618791 -2.47552,-5.12896 -7.735735,-0.930021 -9.728919,-6.799141 -1.371136,-4.037408 3.749248,-9.54448 5.014528,-13.11968 2.07008,-5.8488 -0.67104,-8.464736 -3.7928,-12.854304 -1.223104,-1.719776 -0.72976,-3.819392 -3.073088,-4.78448 -4.779329,-1.96830718 -5.453121,1.756864 -7.362945,4.718784 -2.570368,3.9863035 -5.730208,6.225664 -4.141984,11.64 1.238432,4.221888 7.445408,10.059424 5.524704,14.71872 -2.291328,5.5584 -6.708522,1.0646 -9.3135468,5.83708 -1.5712,2.87872 -3.2128175,5.939434 -3.4292015,9.099114 -0.394016,5.7536 -1.5727782,11.611646 -1.6507622,17.385086 -0.03485,2.58144 -1.9025909,4.832 -2.2969269,7.36 -1.66332101,10.66272 -3.9480328,24.671477 1.9108402,34.210044 m 20.4410702,-8.610038 -0.32,0.32 0.32,-0.32 m -20.9339942,5.395648 -0.32,0.32 0.32,-0.32 m 38.5339942,0.0444 -0.198915,0.37352 z"
       id="path14238"
       sodipodi:nodetypes="cassascccccccsscscccscsssccscccccccccccccccsassssccccccccsccscccccccacaaa" />
  </g>
</svg>
