<?xml version="1.0" encoding="UTF-8" standalone="no"?>
<!-- Created with Inkscape (http://www.inkscape.org/) -->

<svg
   version="1.1"
   id="svg7725"
   width="60.959999"
   height="182.32001"
   viewBox="0 0 60.959999 182.32001"
   sodipodi:docname="Nadwaga2.svg"
   inkscape:version="1.2 (56b05e47e7, 2022-06-09, custom)"
   xmlns:inkscape="http://www.inkscape.org/namespaces/inkscape"
   xmlns:sodipodi="http://sodipodi.sourceforge.net/DTD/sodipodi-0.dtd"
   xmlns="http://www.w3.org/2000/svg"
   xmlns:svg="http://www.w3.org/2000/svg">
  <defs
     id="defs7729" />
  <sodipodi:namedview
     id="namedview7727"
     pagecolor="#505050"
     bordercolor="#eeeeee"
     borderopacity="1"
     inkscape:showpageshadow="0"
     inkscape:pageopacity="0"
     inkscape:pagecheckerboard="0"
     inkscape:deskcolor="#505050"
     showgrid="false"
     inkscape:zoom="6.5217094"
     inkscape:cx="-13.87673"
     inkscape:cy="52.363572"
     inkscape:window-width="1848"
     inkscape:window-height="1016"
     inkscape:window-x="72"
     inkscape:window-y="27"
     inkscape:window-maximized="1"
     inkscape:current-layer="g7731" />
  <g
     inkscape:groupmode="layer"
     inkscape:label="Image"
     id="g7731">
    <path
       style="fill:#ffea00;fill-opacity:1;stroke:#000000;stroke-width:0.32;stroke-opacity:1"
       d="m 5.7344518,106.67141 c 0,0 0.09573,-0.12199 0.149201,-0.4757 0.171121,-1.13188 -0.992912,-3.23961 -0.992912,-3.23961 0,0 3.25282,3.14573 3.101297,2.42938 -0.509608,-2.40929 -5.180411,-5.10894 -2.57504,-7.517586 h 0.32 c 0,0 2.000449,5.750016 2.349118,4.263116 0.871925,-3.718326 -2.875767,-9.186754 -2.346231,-13.988674 0.44656,-4.0496 2.187872,-7.864641 3.000768,-11.840001 0.6969916,-3.40864 0.576768,-6.84032 1.2078716,-10.24 0.4875836,-2.626561 1.6986876,-4.952961 1.8160636,-7.680001 7.800576,7.694401 1.013312,16.157121 -1.8913596,24.320002 -1.1707196,3.28992 -1.3099836,6.78784 -1.3086396,10.24 0.004,10.397444 3.7599032,20.380484 4.4513592,30.720004 0.258048,3.85888 -1.15264,7.68192 -1.246656,11.52 -0.20528,8.37824 0.844416,16.65856 1.823936,24.96 0.512864,4.34656 0.183424,9.24736 -1.057536,13.44 -0.482048,1.6288 -2.099168,4.68384 -0.848896,6.26592 1.532736,1.93952 9.73328,2.52384 10.691616,-0.22048 0.546784,-1.56576 -0.652384,-3.89248 -1.05728,-5.40544 -0.826752,-3.08928 -1.363008,-6.72096 -1.223936,-9.92 0.433952,-9.984 5.427392,-18.95136 5.427392,-29.12 0,-11.5696 3.363776,-22.23584 4.8,-33.6 h 0.319999 c 0.11968,5.79168 2.28384,11.55072 3.064,17.28 1.08672,7.97984 0.41312,16.06464 1.55296,24 0.9536,6.63872 3.80768,12.87776 4.84256,19.52 0.54912,3.52512 -0.0013,7.4288 -0.78368,10.88 -0.41664,1.8368 -1.69152,4.48672 -1.17248,6.3664 0.75904,2.74784 9.79136,2.28096 10.86368,-0.0752 0.99296,-2.18304 -1.07328,-5.736 -1.56704,-7.8912 -1.02272,-4.4624 -0.86272,-8.92512 -0.4256,-13.44 0.6384,-6.59904 1.94336,-13.1952 1.86432,-19.84 -0.08,-6.72448 -1.42944,-13.05824 -0.92992,-19.84 0.27552,-3.73696 1.96224,-7.23456 2.7072,-10.88 1.332481,-6.51904 1.470401,-13.525764 1.090241,-20.160004 -0.444161,-7.751041 -7.799681,-14.306881 -6.992641,-22.400001 0.24992,-2.506561 2.5216,-4.722881 3.4864,-7.040001 l 3.457281,18.240001 3.25792,14.400001 c 0,0 -3.180759,8.958398 -2.457158,11.075844 0.587393,1.71888 2.204638,-5.809546 3.371323,-4.417276 2.368858,2.826886 -2.048134,5.184216 -3.327655,7.376596 -0.604809,1.0363 2.639649,-1.15178 3.07182,-1.4967 0.261423,-0.20865 -1.803118,2.94856 -1.223226,2.69657 4.832705,-2.1 5.081528,-9.213026 5.356728,-13.594142 0.34816,-5.53888 1.027688,-12.792253 0.236968,-18.280893 -0.44384,-3.07872 -2.37792,-5.8528 -2.4592,-8.96 -0.19616,-7.496641 1.89216,-16.387201 -2.76416,-23.038722 -2.63808,-3.76896 -6.990081,-6.21024 -11.320641,-7.49248 -2.0272,-0.6 -6.18112,-0.52896 -7.12256,-2.77888 -1.60736,-3.841696 2.37632,-8.597953 3.31936,-12.129921 0.88544,-3.315808 1.13408,-7.908959 -0.93408,-10.8787832 -0.93152,-1.337377 -2.416,-2.047457 -3.40224,-3.297281 C 33.970987,3.7959 34.321387,1.7543255 31.924267,0.86678629 27.62014,-0.72692611 27.067564,2.86406 25.224588,5.4620758 c -0.772672,1.089216 -2.138432,1.631616 -2.967392,2.709153 -2.176608,2.8292162 -2.3896,7.4483832 -1.687904,10.8511032 0.806848,3.912864 5.107744,8.720161 3.221728,12.798721 -1.27824,2.76416 -4.644192,3.0912 -7.226432,4.0144 -4.073632,1.456 -8.6121592,3.5424 -11.1417272,7.18688 -4.66021401,6.714241 -2.075136,15.234881 -2.494816,22.720002 -0.183584,3.27424 -2.20451501,6.54528 -2.59185005,9.92 -0.422761,3.6832 0.14169004,8.137281 0.49407404,11.840001 0.28453801,2.99008 -0.27391,5.96 0.19481301,8.959998 0.572179,3.661766 2.635621,6.934926 4.398725,10.114446 m 53.7007812,-21.954444 -0.32,0.32 0.32,-0.32 M 5.7369978,103.9479 l -0.32,0.32 z"
       id="path7735"
       sodipodi:nodetypes="cscsccsssscccscscssscscccsccccccsccsccccsssssccccccccccscccccscccccccccc" />
  </g>
</svg>
