<?xml version="1.0" encoding="UTF-8" standalone="no"?>
<!-- Created with Inkscape (http://www.inkscape.org/) -->

<svg
   version="1.1"
   id="svg41"
   width="72.839996"
   height="181.67999"
   viewBox="0 0 72.839996 181.67999"
   sodipodi:docname="Otyłość II stopnia.svg"
   inkscape:version="1.2 (56b05e47e7, 2022-06-09, custom)"
   xmlns:inkscape="http://www.inkscape.org/namespaces/inkscape"
   xmlns:sodipodi="http://sodipodi.sourceforge.net/DTD/sodipodi-0.dtd"
   xmlns="http://www.w3.org/2000/svg"
   xmlns:svg="http://www.w3.org/2000/svg">
  <defs
     id="defs45" />
  <sodipodi:namedview
     id="namedview43"
     pagecolor="#505050"
     bordercolor="#eeeeee"
     borderopacity="1"
     inkscape:showpageshadow="0"
     inkscape:pageopacity="0"
     inkscape:pagecheckerboard="0"
     inkscape:deskcolor="#505050"
     showgrid="false"
     inkscape:zoom="4.4261761"
     inkscape:cx="-17.509471"
     inkscape:cy="92.96964"
     inkscape:window-width="1848"
     inkscape:window-height="1016"
     inkscape:window-x="72"
     inkscape:window-y="27"
     inkscape:window-maximized="1"
     inkscape:current-layer="g47" />
  <g
     inkscape:groupmode="layer"
     inkscape:label="Image"
     id="g47">
    <path
       style="fill:#ff0000;stroke:#000000;stroke-width:0.32;fill-opacity:1;stroke-opacity:1"
       d="m 4.5082618,106.44622 c 0,0 0.4881011,0.1498 0.64,0 0.1744764,-0.17205 0.038524,-0.49164 0.010264,-0.73505 -0.1376459,-1.18554 -0.8059115,-2.53439 -0.8689455,-3.47346 -0.100223,-1.4931 2.7357937,4.80662 3.2757121,3.41095 1.0210807,-2.63945 -3.2554742,-5.64054 -1.7770303,-7.522431 2.3310486,-2.967156 1.1574709,2.387381 2.4578258,3.770621 0.1910601,0.20323 1.0062306,0.92874 1.0621742,0.70937 C 10.266143,98.850147 7.1529599,90.693206 7.1529599,90.693206 l 3.0439351,-9.279999 0.9536,-8 2.435296,-9.92 h 0.32 c 0.496352,3.68608 1.913696,7.42784 1.507392,11.2 -0.650816,6.04288 -3.91312,11.494079 -4.062688,17.599999 -0.246528,10.062714 3.155712,19.507194 4.10096,29.439994 0.4144,4.35424 -1.382848,8.7568 -1.212832,13.12 0.258368,6.63072 2.884672,12.8976 4.69408,19.2 1.436992,5.00512 2.239456,10.16544 1.601472,15.36 -0.325664,2.65184 -2.807808,7.00256 -1.926656,9.55744 0.39104,1.13376 1.946016,1.39744 2.978272,1.54656 2.549152,0.36832 8.066303,1.25696 10.136959,-0.70848 1.27584,-1.21088 0.20128,-3.58048 -0.28672,-4.95552 -1.461312,-4.11744 -2.859008,-8.37216 -2.435904,-12.8 0.686272,-7.1824 3.686144,-13.92608 4.371264,-21.12 0.40576,-4.26016 -0.52832,-8.5504 -0.52832,-12.8 0,-6.65408 1.47712,-14.36192 3.14272,-20.8 h 0.32 c 0.2624,6.0928 2.424,12.14464 2.8512,18.24 0.44064,6.28672 -1.0416,12.63136 0.05568,18.88 1.06784,6.08032 4.12096,11.74272 4.71872,17.92 0.38464,3.97536 -1.1328,7.56032 -2.4896,11.2 -0.61408,1.64704 -1.9424,3.936 -1.50944,5.74592 0.27456,1.14912 1.38624,1.63552 2.45344,1.8288 2.3504,0.42528 8.934719,0.92544 10.687039,-1.0192 1.42816,-1.58496 -0.26272,-5.14752 -0.71776,-6.87552 -1.33312,-5.0624 -1.06272,-9.96448 0.01824,-15.04 1.44192,-6.7712 4.64736,-13.22976 5.31808,-20.16 0.67136,-6.9376 -1.2752,-13.50848 -0.22272,-20.48 0.98944,-6.5536 4.67648,-12.8464 4.75584,-19.519994 0.04192,-3.53088 0.19872,-7.09856 -0.60256,-10.56 -1.09536,-4.73184 -3.79104,-8.892799 -4.42368,-13.759999 -0.4112,-3.16576 0.33376,-6.56352 1.18752,-9.6 h 0.32 l 2.2752,9.92 1.21728,7.04 4.082239,10.239999 c 0,0 -2.519842,9.944504 -2.111573,11.847564 0.322612,1.50379 2.360639,-4.990163 3.377374,-3.738455 1.416945,1.744415 -1.131331,4.321905 -1.480521,6.290885 -0.186262,1.05028 2.56,-1.92 2.56,-1.92 l -0.517777,3.25579 c 2.571787,0.74453 3.785937,-12.020584 3.719057,-17.655784 -0.04032,-3.37312 0.87232,-6.58816 0.95392,-9.919999 0.08896,-3.61728 -0.96288,-6.7296 -1.24544,-10.24 -0.3536,-4.3952 0.04352,-8.723519 -0.58304,-13.119999 -0.75808,-5.31776 -1.96608,-11.538559 -5.72384,-15.624319 -3.164479,-3.44096 -8.519359,-4.3568 -12.922879,-5.04 -3.27904,-0.50848 -6.558079,-0.83552 -8.443839,-3.97696 -2.22016,-3.698816 2.561599,-9.523167 3.220159,-13.438719 0.5456,-3.242752 0.35008,-6.996704 -1.884479,-9.5987839 C 44.16851,7.2561862 42.58451,6.6316422 41.61779,5.4485383 40.05683,3.5387464 40.51603,1.5446378 37.58579,0.75049693 33.18483,-0.4422198 32.82547,2.9666824 30.685534,5.4485383 29.778846,6.5001222 28.455006,6.9767302 27.598142,8.1381381 25.152639,11.45289 24.820671,16.057818 25.573183,19.97321 c 0.784064,4.079488 4.847583,7.956831 2.339775,12.158399 -1.637247,2.74304 -5.714207,3.23232 -8.567167,3.9168 -4.236928,1.01696 -9.135392,2.64416 -12.0928311,6.0096 -5.375449,6.116799 -5.507168,15.405759 -5.507168,23.035198 0,3.74752 -1.18458801,7.17696 -1.27530801,10.88 -0.09549,3.89792 1.00370201,7.629119 1.00370201,11.519999 0,3.11328 -0.93682601,6.19808 -0.86271401,9.28 0.08687,3.612474 2.06418191,6.678774 3.89678991,9.673014 m 64.1152552,-2.62069 -0.03823,0.008 z"
       id="path209"
       sodipodi:nodetypes="caasssssccccccccsssscccccscccccccccsccccsccccccsssccccccccccccccccsccsssscscs" />
  </g>
</svg>
